<mxfile host="app.diagrams.net" agent="Mozilla/5.0 (Windows NT 10.0; Win64; x64) AppleWebKit/537.36 (KHTML, like Gecko) Chrome/140.0.0.0 Safari/537.36" version="28.2.5">
  <diagram name="Page-1" id="BmnIUpe5SFCSZau6LSR6">
    <mxGraphModel grid="1" page="1" gridSize="10" guides="1" tooltips="1" connect="1" arrows="1" fold="1" pageScale="1" pageWidth="850" pageHeight="1100" math="0" shadow="0">
      <root>
        <mxCell id="0" />
        <mxCell id="1" parent="0" />
        <mxCell id="W-wBvdzIlGuy2cJLCZwp-41" value="" style="rounded=0;whiteSpace=wrap;html=1;labelBackgroundColor=none;" vertex="1" parent="1">
          <mxGeometry x="250" y="280" width="450" height="400" as="geometry" />
        </mxCell>
        <mxCell id="PrkwMRlZ932h4uCknQk2-1" style="edgeStyle=orthogonalEdgeStyle;rounded=0;orthogonalLoop=1;jettySize=auto;html=1;exitX=0.5;exitY=0.5;exitDx=0;exitDy=0;exitPerimeter=0;entryX=0;entryY=0.5;entryDx=0;entryDy=0;" edge="1" parent="1" source="W-wBvdzIlGuy2cJLCZwp-43" target="W-wBvdzIlGuy2cJLCZwp-44">
          <mxGeometry relative="1" as="geometry" />
        </mxCell>
        <mxCell id="W-wBvdzIlGuy2cJLCZwp-43" value="Customer" style="shape=umlActor;verticalLabelPosition=bottom;verticalAlign=top;html=1;labelBackgroundColor=none;" vertex="1" parent="1">
          <mxGeometry x="160" y="310" width="30" height="60" as="geometry" />
        </mxCell>
        <mxCell id="PrkwMRlZ932h4uCknQk2-2" style="edgeStyle=orthogonalEdgeStyle;rounded=0;orthogonalLoop=1;jettySize=auto;html=1;exitX=0.5;exitY=1;exitDx=0;exitDy=0;entryX=0.5;entryY=0;entryDx=0;entryDy=0;" edge="1" parent="1" source="W-wBvdzIlGuy2cJLCZwp-44" target="W-wBvdzIlGuy2cJLCZwp-47">
          <mxGeometry relative="1" as="geometry" />
        </mxCell>
        <mxCell id="W-wBvdzIlGuy2cJLCZwp-44" value="Initiate payment" style="ellipse;whiteSpace=wrap;html=1;labelBackgroundColor=none;" vertex="1" parent="1">
          <mxGeometry x="300" y="310" width="120" height="60" as="geometry" />
        </mxCell>
        <mxCell id="W-wBvdzIlGuy2cJLCZwp-45" style="edgeStyle=none;rounded=0;orthogonalLoop=1;jettySize=auto;html=1;exitX=1;exitY=0.5;exitDx=0;exitDy=0;" edge="1" parent="1" source="W-wBvdzIlGuy2cJLCZwp-47" target="W-wBvdzIlGuy2cJLCZwp-52">
          <mxGeometry relative="1" as="geometry" />
        </mxCell>
        <mxCell id="W-wBvdzIlGuy2cJLCZwp-46" value="&amp;lt;&amp;lt;includes&amp;gt;&amp;gt;" style="edgeLabel;html=1;align=center;verticalAlign=middle;resizable=0;points=[];" vertex="1" connectable="0" parent="W-wBvdzIlGuy2cJLCZwp-45">
          <mxGeometry x="0.0359" y="-1" relative="1" as="geometry">
            <mxPoint as="offset" />
          </mxGeometry>
        </mxCell>
        <mxCell id="PrkwMRlZ932h4uCknQk2-4" style="edgeStyle=orthogonalEdgeStyle;rounded=0;orthogonalLoop=1;jettySize=auto;html=1;exitX=0.5;exitY=1;exitDx=0;exitDy=0;entryX=0.5;entryY=0;entryDx=0;entryDy=0;" edge="1" parent="1" source="W-wBvdzIlGuy2cJLCZwp-47" target="W-wBvdzIlGuy2cJLCZwp-50">
          <mxGeometry relative="1" as="geometry" />
        </mxCell>
        <mxCell id="W-wBvdzIlGuy2cJLCZwp-47" value="Payment gateway&lt;br&gt;(3rd party)" style="ellipse;whiteSpace=wrap;html=1;labelBackgroundColor=none;" vertex="1" parent="1">
          <mxGeometry x="300" y="390" width="120" height="60" as="geometry" />
        </mxCell>
        <mxCell id="W-wBvdzIlGuy2cJLCZwp-48" style="rounded=0;orthogonalLoop=1;jettySize=auto;html=1;exitX=1;exitY=0.5;exitDx=0;exitDy=0;" edge="1" parent="1" source="W-wBvdzIlGuy2cJLCZwp-50" target="W-wBvdzIlGuy2cJLCZwp-53">
          <mxGeometry relative="1" as="geometry" />
        </mxCell>
        <mxCell id="W-wBvdzIlGuy2cJLCZwp-49" value="&amp;lt;&amp;lt;includes&amp;gt;&amp;gt;" style="edgeLabel;html=1;align=center;verticalAlign=middle;resizable=0;points=[];" vertex="1" connectable="0" parent="W-wBvdzIlGuy2cJLCZwp-48">
          <mxGeometry x="-0.2365" y="-3" relative="1" as="geometry">
            <mxPoint as="offset" />
          </mxGeometry>
        </mxCell>
        <mxCell id="PrkwMRlZ932h4uCknQk2-5" style="edgeStyle=orthogonalEdgeStyle;rounded=0;orthogonalLoop=1;jettySize=auto;html=1;exitX=0.5;exitY=1;exitDx=0;exitDy=0;entryX=0.5;entryY=0;entryDx=0;entryDy=0;" edge="1" parent="1" source="W-wBvdzIlGuy2cJLCZwp-50" target="W-wBvdzIlGuy2cJLCZwp-51">
          <mxGeometry relative="1" as="geometry" />
        </mxCell>
        <mxCell id="W-wBvdzIlGuy2cJLCZwp-50" value="Verify payment" style="ellipse;whiteSpace=wrap;html=1;labelBackgroundColor=none;" vertex="1" parent="1">
          <mxGeometry x="300" y="470" width="120" height="60" as="geometry" />
        </mxCell>
        <mxCell id="PrkwMRlZ932h4uCknQk2-6" style="edgeStyle=orthogonalEdgeStyle;rounded=0;orthogonalLoop=1;jettySize=auto;html=1;exitX=0.5;exitY=1;exitDx=0;exitDy=0;" edge="1" parent="1" source="W-wBvdzIlGuy2cJLCZwp-51" target="W-wBvdzIlGuy2cJLCZwp-55">
          <mxGeometry relative="1" as="geometry" />
        </mxCell>
        <mxCell id="W-wBvdzIlGuy2cJLCZwp-51" value="Payment status update" style="ellipse;whiteSpace=wrap;html=1;labelBackgroundColor=none;" vertex="1" parent="1">
          <mxGeometry x="300" y="550" width="120" height="60" as="geometry" />
        </mxCell>
        <mxCell id="W-wBvdzIlGuy2cJLCZwp-52" value="Multiple payment vendors" style="ellipse;whiteSpace=wrap;html=1;labelBackgroundColor=none;" vertex="1" parent="1">
          <mxGeometry x="550" y="390" width="120" height="60" as="geometry" />
        </mxCell>
        <mxCell id="W-wBvdzIlGuy2cJLCZwp-53" value="System verification module" style="ellipse;whiteSpace=wrap;html=1;labelBackgroundColor=none;" vertex="1" parent="1">
          <mxGeometry x="550" y="460" width="120" height="60" as="geometry" />
        </mxCell>
        <mxCell id="W-wBvdzIlGuy2cJLCZwp-54" style="edgeStyle=none;rounded=0;orthogonalLoop=1;jettySize=auto;html=1;exitX=1;exitY=0.5;exitDx=0;exitDy=0;" edge="1" parent="1" source="W-wBvdzIlGuy2cJLCZwp-55">
          <mxGeometry relative="1" as="geometry">
            <mxPoint x="770" y="460" as="targetPoint" />
          </mxGeometry>
        </mxCell>
        <mxCell id="W-wBvdzIlGuy2cJLCZwp-55" value="Order successful" style="ellipse;whiteSpace=wrap;html=1;labelBackgroundColor=none;" vertex="1" parent="1">
          <mxGeometry x="440" y="600" width="120" height="60" as="geometry" />
        </mxCell>
        <mxCell id="W-wBvdzIlGuy2cJLCZwp-56" style="edgeStyle=orthogonalEdgeStyle;rounded=0;orthogonalLoop=1;jettySize=auto;html=1;exitX=0.5;exitY=0;exitDx=0;exitDy=0;exitPerimeter=0;" edge="1" parent="1" source="W-wBvdzIlGuy2cJLCZwp-59" target="W-wBvdzIlGuy2cJLCZwp-60">
          <mxGeometry relative="1" as="geometry" />
        </mxCell>
        <mxCell id="W-wBvdzIlGuy2cJLCZwp-57" style="edgeStyle=none;rounded=0;orthogonalLoop=1;jettySize=auto;html=1;exitX=1;exitY=0.3333333333333333;exitDx=0;exitDy=0;exitPerimeter=0;" edge="1" parent="1" source="W-wBvdzIlGuy2cJLCZwp-59" target="W-wBvdzIlGuy2cJLCZwp-62">
          <mxGeometry relative="1" as="geometry" />
        </mxCell>
        <mxCell id="W-wBvdzIlGuy2cJLCZwp-59" value="System" style="shape=umlActor;verticalLabelPosition=bottom;verticalAlign=top;html=1;labelBackgroundColor=none;" vertex="1" parent="1">
          <mxGeometry x="780" y="380" width="30" height="60" as="geometry" />
        </mxCell>
        <mxCell id="W-wBvdzIlGuy2cJLCZwp-60" value="Payment System" style="rounded=1;whiteSpace=wrap;html=1;labelBackgroundColor=none;" vertex="1" parent="1">
          <mxGeometry x="820" y="280" width="90" height="60" as="geometry" />
        </mxCell>
        <mxCell id="W-wBvdzIlGuy2cJLCZwp-61" style="edgeStyle=orthogonalEdgeStyle;rounded=0;orthogonalLoop=1;jettySize=auto;html=1;exitX=1;exitY=0.5;exitDx=0;exitDy=0;entryX=0.143;entryY=0.831;entryDx=0;entryDy=0;entryPerimeter=0;" edge="1" parent="1" source="W-wBvdzIlGuy2cJLCZwp-52" target="W-wBvdzIlGuy2cJLCZwp-59">
          <mxGeometry relative="1" as="geometry" />
        </mxCell>
        <mxCell id="W-wBvdzIlGuy2cJLCZwp-62" value="Notification System" style="rounded=1;whiteSpace=wrap;html=1;labelBackgroundColor=none;" vertex="1" parent="1">
          <mxGeometry x="900" y="370" width="90" height="60" as="geometry" />
        </mxCell>
        <mxCell id="W-wBvdzIlGuy2cJLCZwp-63" value="&lt;font style=&quot;font-size: 16px;&quot;&gt;Green Mart&lt;/font&gt;" style="text;html=1;align=center;verticalAlign=middle;resizable=0;points=[];autosize=1;strokeColor=none;fillColor=none;" vertex="1" parent="1">
          <mxGeometry x="415" y="280" width="100" height="30" as="geometry" />
        </mxCell>
        <mxCell id="W-wBvdzIlGuy2cJLCZwp-64" value="&lt;span style=&quot;font-size: 16px;&quot;&gt;Transaction 3: Payment Processing&lt;/span&gt;" style="text;html=1;align=center;verticalAlign=middle;resizable=0;points=[];autosize=1;strokeColor=none;fillColor=none;" vertex="1" parent="1">
          <mxGeometry x="335" y="690" width="280" height="30" as="geometry" />
        </mxCell>
        <mxCell id="W-wBvdzIlGuy2cJLCZwp-77" style="edgeStyle=none;rounded=0;orthogonalLoop=1;jettySize=auto;html=1;exitX=1;exitY=0.5;exitDx=0;exitDy=0;entryX=0;entryY=1;entryDx=0;entryDy=0;entryPerimeter=0;" edge="1" parent="1" source="W-wBvdzIlGuy2cJLCZwp-53" target="W-wBvdzIlGuy2cJLCZwp-59">
          <mxGeometry relative="1" as="geometry" />
        </mxCell>
      </root>
    </mxGraphModel>
  </diagram>
</mxfile>
